<svg width="21" height="24" viewBox="0 0 21 24" fill="none" xmlns="http://www.w3.org/2000/svg">
<path fill-rule="evenodd" clip-rule="evenodd" d="M17.5429 0.799927H3.2572C1.67924 0.799927 0.400055 2.07911 0.400055 3.65707V7.94278C0.400055 9.52074 1.67924 10.7999 3.2572 10.7999H17.5429C19.1209 10.7999 20.4001 9.52074 20.4001 7.94278V3.65707C20.4001 2.07911 19.1209 0.799927 17.5429 0.799927ZM1.82868 3.65709C1.82868 2.86811 2.46828 2.22852 3.25726 2.22852H17.543C18.3319 2.22852 18.9715 2.86811 18.9715 3.65709V7.9428C18.9715 8.73178 18.3319 9.37137 17.543 9.37137H3.25726C2.46828 9.37137 1.82868 8.73178 1.82868 7.9428V3.65709ZM3.2572 13.6571H17.5429C19.1209 13.6571 20.4001 14.9362 20.4001 16.5142V20.7999C20.4001 22.3779 19.1209 23.6571 17.5429 23.6571H3.2572C1.67924 23.6571 0.400055 22.3779 0.400055 20.7999V16.5142C0.400055 14.9362 1.67924 13.6571 3.2572 13.6571ZM1.82868 16.5141C1.82868 15.7252 2.46828 15.0856 3.25726 15.0856H17.543C18.3319 15.0856 18.9715 15.7252 18.9715 16.5141V20.7999C18.9715 21.5888 18.3319 22.2284 17.543 22.2284H3.25726C2.46828 22.2284 1.82868 21.5888 1.82868 20.7999V16.5141Z" fill="#FFFDF5"/>
</svg>
